<?xml version="1.0" encoding="utf-8"?>
<!-- Generator: Adobe Illustrator 25.4.1, SVG Export Plug-In . SVG Version: 6.00 Build 0)  -->
<svg version="1.1" id="Logo_x5F_En" xmlns="http://www.w3.org/2000/svg" xmlns:xlink="http://www.w3.org/1999/xlink" x="0px"
	 y="0px" viewBox="0 0 471.8 456.7" style="enable-background:new 0 0 471.8 456.7;" xml:space="preserve">
<style type="text/css">
	.st0{fill:#BE6779;}
	.st1{fill:#D4AF37;}
</style>
<g id="Title_00000005987227110921848890000005889953290699404711_">
	<g id="Branding">
		<path id="B" class="st0" d="M212.7,415.3c2.2-0.9,3.9-2.3,5.2-4.1c1.2-1.9,1.9-4.1,1.9-6.5c0-4.5-1.5-8-4.6-10.3
			c-3.1-2.3-7.6-3.5-13.6-3.5h-17.2v50.5h19.1c5.6,0,9.9-1.3,12.9-3.8c3-2.5,4.5-6.2,4.5-11c0-2.8-0.7-5.2-2.2-7.2
			C217.2,417.2,215.2,415.9,212.7,415.3z M194.4,399.2h7.1c2.8,0,4.8,0.5,6.1,1.5s1.9,2.7,1.9,4.9c0,4.1-2.6,6.2-7.7,6.3h-7.5V399.2
			z M208.7,431.1c-1.3,1.2-3.2,1.7-5.6,1.7h-8.7v-13.6h9.3c4.7,0.1,7,2.4,7,7C210.7,428.4,210,430,208.7,431.1z"/>
		<path id="R_00000164500397135020519440000013540232085784892546_" class="st0" d="M237.3,408.2l-0.3-4.5h-9.2v37.5h9.8v-24.5
			c1.1-2.6,3.6-3.8,7.3-3.8c1,0,2.2,0.1,3.5,0.3l0.1-9.6c-0.9-0.3-2-0.5-3-0.5C242,403,239.3,404.8,237.3,408.2z"/>
		<path id="A_00000036248522152188236660000014646748773377167526_" class="st0" d="M281.6,416.3c0-4.2-1.3-7.5-4-9.8
			c-2.6-2.3-6.2-3.5-10.7-3.5c-3,0-5.7,0.5-8,1.6c-2.4,1-4.2,2.5-5.5,4.3c-1.3,1.9-2,3.9-2,6h9.8c0-1.4,0.5-2.5,1.4-3.3
			c0.9-0.8,2.2-1.2,3.9-1.2c1.9,0,3.2,0.5,4.1,1.6c0.9,1,1.3,2.4,1.3,4.2v2.1h-4.5c-5.4,0-9.6,1.1-12.5,3.2
			c-2.9,2.1-4.3,5.2-4.3,9.2c0,3.2,1.2,5.9,3.5,8c2.4,2.1,5.3,3.2,8.9,3.2c3.8,0,6.9-1.4,9.2-4.1c0.2,1.3,0.5,2.5,1,3.4h9.9v-0.6
			c-0.9-1.8-1.4-4.5-1.5-8.1V416.3z M271.8,430.6c-0.6,1.1-1.5,2-2.7,2.7s-2.5,1-4,1c-1.5,0-2.7-0.4-3.5-1.2
			c-0.9-0.8-1.3-1.8-1.3-3.1l0-0.6c0.3-3.5,2.9-5.2,7.8-5.2h3.6V430.6z"/>
		<path id="N" class="st0" d="M308.9,403c-4.4,0-7.9,1.7-10.5,5l-0.3-4.3h-9.2v37.5h9.8v-26.5c1.4-2.4,3.4-3.6,6.2-3.6
			c2.1,0,3.6,0.5,4.5,1.4c0.9,1,1.4,2.5,1.4,4.6v24h9.8V417c0-4.6-1-8.1-2.9-10.5C315.7,404.2,312.8,403,308.9,403z"/>
		<path id="D_00000048460275552991794090000004554388775932492446_" class="st0" d="M349.5,407.1c-2.3-2.7-5.3-4.1-8.8-4.1
			c-4.4,0-7.9,1.7-10.5,5.2c-2.6,3.5-3.8,8.1-3.8,14c0,6.2,1.3,11,3.9,14.5c2.6,3.5,6.1,5.2,10.4,5.2c3.8,0,7-1.6,9.4-4.7l0.5,4h8.8
			V388h-9.8V407.1z M349.5,429.9c-1.2,2.6-3.4,3.9-6.4,3.9c-2.3,0-4-0.9-5.2-2.8c-1.2-1.9-1.8-4.6-1.8-8.1c0-7.9,2.4-11.8,7.1-11.8
			c3,0,5.1,1.3,6.3,3.9V429.9z"/>
		<path id="I_00000178192244122477908740000007077974219830339241_" class="st0" d="M372.3,388.9c-1.7,0-3,0.5-4,1.5
			s-1.5,2.2-1.5,3.7c0,1.5,0.5,2.8,1.5,3.7c1,1,2.3,1.5,4,1.5c1.6,0,3-0.5,4-1.5s1.5-2.2,1.5-3.7c0-1.5-0.5-2.7-1.5-3.7
			C375.3,389.4,374,388.9,372.3,388.9z"/>
		<rect id="I" x="367.4" y="403.7" class="st0" width="9.8" height="37.5"/>
		<path id="N_00000082356652814093896840000004659288155925050501_" class="st0" d="M405,403c-4.4,0-7.9,1.7-10.5,5l-0.3-4.3H385
			v37.5h9.8v-26.5c1.4-2.4,3.4-3.6,6.2-3.6c2.1,0,3.6,0.5,4.5,1.4c0.9,1,1.4,2.5,1.4,4.6v24h9.8V417c0-4.6-1-8.1-2.9-10.5
			C411.8,404.2,408.9,403,405,403z"/>
		<path id="G" class="st0" d="M447.1,403.7l-0.4,3.5c-2.2-2.8-5.3-4.2-9.4-4.2c-4.5,0-8.1,1.8-10.8,5.3c-2.7,3.5-4,8.1-4,13.9v0.4
			c0,5.8,1.4,10.5,4.1,14c2.7,3.5,6.3,5.3,10.7,5.3c3.7,0,6.6-1.3,8.9-3.9v2c0,2.6-0.7,4.6-2.2,6c-1.4,1.4-3.5,2.1-6,2.1
			c-3.5,0-6.4-1.4-8.9-4.2l-4.3,6.1c1.3,1.7,3.2,3.1,5.8,4.2c2.5,1.1,5.2,1.6,7.8,1.6c3.5,0,6.6-0.6,9.3-1.9
			c2.6-1.3,4.7-3.1,6.1-5.5s2.2-5.3,2.2-8.6v-36.3H447.1z M446.2,430.4c-1.3,2.3-3.4,3.4-6.4,3.4c-2.3,0-4.1-1-5.5-2.9
			c-1.3-1.9-2-4.6-2-8c0-3.9,0.7-6.9,2-8.8c1.3-2,3.2-3,5.5-3c2.9,0,5,1.1,6.3,3.4V430.4z"/>
	</g>
	<g id="Arad">
		<path id="A" class="st1" d="M34.3,390.8L16,441.2h10.8l3.4-10.4h17.8l3.4,10.4h10.8l-18.4-50.5H34.3z M32.9,422.4l6.1-18.9
			l6.2,18.9H32.9z"/>
		<path id="R" class="st1" d="M75.6,408.2l-0.3-4.5h-9.2v37.5h9.8v-24.5c1.1-2.6,3.6-3.8,7.3-3.8c1,0,2.2,0.1,3.5,0.3l0.1-9.6
			c-0.9-0.3-2-0.5-3-0.5C80.2,403,77.5,404.8,75.6,408.2z"/>
		<path id="A_00000004525024329311156660000010453400839861083323_" class="st1" d="M119.9,416.3c0-4.2-1.3-7.5-4-9.8
			c-2.6-2.3-6.2-3.5-10.7-3.5c-3,0-5.7,0.5-8,1.6c-2.4,1-4.2,2.5-5.5,4.3c-1.3,1.9-2,3.9-2,6h9.8c0-1.4,0.5-2.5,1.4-3.3
			c0.9-0.8,2.2-1.2,3.9-1.2c1.9,0,3.2,0.5,4.1,1.6c0.9,1,1.3,2.4,1.3,4.2v2.1h-4.5c-5.4,0-9.6,1.1-12.5,3.2
			c-2.9,2.1-4.3,5.2-4.3,9.2c0,3.2,1.2,5.9,3.5,8s5.3,3.2,8.9,3.2c3.8,0,6.9-1.4,9.2-4.1c0.2,1.3,0.5,2.5,1,3.4h9.9v-0.6
			c-0.9-1.8-1.4-4.5-1.5-8.1V416.3z M110.1,430.6c-0.6,1.1-1.5,2-2.7,2.7c-1.2,0.7-2.5,1-4,1c-1.5,0-2.7-0.4-3.5-1.2
			c-0.9-0.8-1.3-1.8-1.3-3.1l0-0.6c0.3-3.5,2.9-5.2,7.8-5.2h3.7V430.6z"/>
		<path id="D" class="st1" d="M149,407.1c-2.3-2.7-5.3-4.1-8.8-4.1c-4.4,0-7.9,1.7-10.5,5.2c-2.6,3.5-3.8,8.1-3.8,14
			c0,6.2,1.3,11,3.9,14.5c2.6,3.5,6.1,5.2,10.4,5.2c3.8,0,7-1.6,9.4-4.7l0.5,4h8.8V388H149V407.1z M149,429.9
			c-1.2,2.6-3.4,3.9-6.4,3.9c-2.3,0-4-0.9-5.2-2.8c-1.2-1.9-1.8-4.6-1.8-8.1c0-7.9,2.4-11.8,7.1-11.8c3,0,5.1,1.3,6.3,3.9V429.9z"/>
	</g>
</g>
<g id="Logo_00000137121719552920730780000010668015361088938395_">
	<path id="Logo_x5F_1" class="st1" d="M208.1,0l-0.2,82.7c0,0,49.2,29.4,61.6,87.9c0,0,20.2-43.4,70.2-43.4c0,0,29-1.5,50.3,18.6
		c0,0,25.6,20,24.9,56.9c-0.6,33.9-20.8,51.9-20.8,51.9s-23.9,23.2-49,23.2v57.4c0,0,62.4-1.7,100.4-54.9c0,0,26.3-33.4,26.3-76.4
		c0-45.9-23.7-84.7-46.1-101.7c0,0-34.1-32-85.9-32s-75.2,24.6-75.2,24.6V48C264.6,48,268.5,10.7,208.1,0z"/>
	<path id="Logo_x5F_2" class="st0" d="M202.1,231.7c0,0,7.1,36.7,28.6,60.1c0,0-32.4,43.3-97.9,43.3S0.1,284.4,0.1,201.1
		c0,0-5-60.1,53.7-105.4c0,0,29.5-25.5,78.5-25.5s84.3,21.4,110.8,58s22.4,78.9,22.4,78.9s-3.5,33.2,31.5,57.4
		c0,0,21.7,13.5,42.7,13.5v57.1c0,0-43.7,3-82-27.8c0,0-25.2-19.1-40.3-51.2c0,0-10.8-27.2-10.8-48.8c0,0,5.9-32.4-21.6-58.5
		c0,0-19.1-21.8-53.9-21.8s-56.9,28-56.9,28s-17,18.6-17,47.7s16.2,50.5,30.2,60.2c0,0,15.6,14.8,46.1,14.8s46.4-17,46.4-17
		S195.6,248.3,202.1,231.7z"/>
</g>
</svg>
